<svg xmlns="http://www.w3.org/2000/svg" viewBox="0 0 505.58 82.09"><defs><style>.cls-1{fill:#00245b;}.cls-2{fill:#858688;}.cls-3{fill:#47a01a;}.cls-4{fill:none;}</style></defs><title>logo</title><g id="Layer_2" data-name="Layer 2"><g id="Layer_1-2" data-name="Layer 1"><g id="Group_4319" data-name="Group 4319"><path id="Path_2025" data-name="Path 2025" class="cls-1" d="M297.39,12.37h-10.1V49.71h10.1ZM267.6,26.88V20.44h1c2.08,0,3.61.94,3.61,3.17,0,2.43-1.93,3.27-4,3.27Zm0,14.76V34.46h.79c2.33,0,4.26,1,4.26,3.56s-2,3.62-4.21,3.62Zm-10.1,8.07h13.56c9,0,11.79-6,11.79-10.65,0-5-2.63-8.07-7.58-8.47v-.1c4.26,0,7-3.27,7-7.48,0-8.07-6.93-10.64-12.88-10.64H257.49Zm-3.88,0L250,12.37H237.57L235.14,25.3c-.45,2.32-.69,4.6-1,6.93h-.1l-2.87-19.86H218.6l-4.36,37.34h10.85l.84-15.2c.15-2.78.1-5.5.15-8.27h.1l3.51,23.47h8.22l2.88-15.3c.5-2.72.84-5.45,1.28-8.17h.1l.94,23.48ZM195.81,37l1.39-8.66c.4-2.33.64-4.7.94-7h.1c.25,2.33.44,4.71.74,7L200.07,37Zm16.64,12.73-7.93-37.34H192.19l-9,37.34h10.4l.84-4.8h6.78l.75,4.8Zm-32-37.1a13.9,13.9,0,0,0-5.15-.89c-4.9,0-16.39,2.82-16.39,19.56,0,12.78,7,19.07,15.3,19.07A14.4,14.4,0,0,0,180.32,49l.6-10.45a7.35,7.35,0,0,1-5.35,2.37c-5,0-6.34-5.54-6.34-9.9,0-4.11,1.29-9.91,6.54-9.91a6.17,6.17,0,0,1,4.7,2.18Zm-25.81-.24h-10.1V49.71h10.1ZM125.15,29.6V20.39c2.77-.15,4.75,1.24,4.75,4.51,0,2.43-1.43,4.75-4.11,4.75Zm16.49,20.11-7.53-15.55c4-1.58,5.8-5.25,5.8-9.36,0-9.86-6.34-12.43-15.11-12.43H115V49.71h10.1v-10c0-1.83-.1-3.67-.15-5.5l.1-.1,5.6,15.55ZM92.53,31c0-2.33.15-9.9,4-9.9s4,7.57,4,9.9-.15,9.91-4,9.91-4-7.58-4-9.91m-10.3,0c0,9.12,4,19.32,14.27,19.32S110.76,40.16,110.76,31s-4-19.31-14.26-19.31S82.23,21.93,82.23,31M64.48,29.61V20.39c2.78-.14,4.76,1.24,4.76,4.51,0,2.43-1.44,4.76-4.11,4.76ZM81,49.72,73.45,34.16c4-1.58,5.8-5.25,5.8-9.36,0-9.85-6.34-12.43-15.11-12.43H54.38V49.72h10.1v-10c0-1.83-.1-3.67-.14-5.5l.1-.1L70,49.71ZM38.92,12.37V35.89a12.46,12.46,0,0,1-.24,3.28A2.17,2.17,0,0,1,36.35,41,2.24,2.24,0,0,1,34,39.12a12.36,12.36,0,0,1-.25-3.27V12.37H23.67V36.78c0,4.51,1,13.58,12.68,13.58S49,41.29,49,36.78V12.37ZM0,49.71H18.77V40.9H10.1V35.2h7.78V26.38H10.1v-5.2h8.67V12.37H0Z"/><path id="Path_2026" data-name="Path 2026" class="cls-2" d="M495.38,24.9c0,2.77-1.74,4.31-4.51,4.16V20.44l.74-.05c2.48,0,3.77,2.13,3.77,4.51m-4.51,24.81V37.48c8.76.25,14.71-2.72,14.71-12.43S498.79,12.37,490,12.37h-9.21V49.71ZM465.31,12.37V35.89a12.36,12.36,0,0,1-.25,3.27A2.17,2.17,0,0,1,462.74,41a2.25,2.25,0,0,1-2.33-1.84,11.91,11.91,0,0,1-.25-3.26V12.37h-10.1V36.79c0,4.5,1,13.57,12.68,13.57s12.68-9.07,12.68-13.57V12.37ZM427.75,31c0-2.33.15-9.91,4-9.91s4,7.58,4,9.91-.15,9.91-4,9.91-4-7.58-4-9.91m-10.3,0c0,9.11,4,19.32,14.27,19.32S446,40.16,446,31s-4-19.32-14.26-19.32S417.45,21.92,417.45,31M399.7,29.6V20.39c2.78-.15,4.76,1.24,4.76,4.51,0,2.42-1.44,4.75-4.11,4.75Zm16.5,20.11-7.53-15.54c4-1.59,5.8-5.25,5.8-9.36,0-9.86-6.34-12.44-15.11-12.44H389.6V49.72h10.1v-10c0-1.83-.1-3.66-.15-5.5l.1-.1,5.6,15.55ZM371.38,28.12V36h3.71c.05,2.18-.79,5.35-3.46,5.35-3.92,0-3.72-6.54-3.87-9.21,0-2.82-.4-11.39,4.26-11.39,1.79,0,2.78,2.33,2.87,3.81l9.76-3.61c-2.18-5.4-6.69-9.22-12.73-9.22C361,11.72,357.46,22,357.46,31.24c0,9.46,3.57,19.12,14.56,19.12,11.69,0,13.48-11.44,13.48-20.66l-.05-1.58Z"/><path id="Path_2027" data-name="Path 2027" class="cls-3" d="M334.15,31.2,320.68,3h16.55L350.7,31.2Z"/><path id="Path_2028" data-name="Path 2028" class="cls-3" d="M317.62,31.2,304.15,59.35H320.7L334.17,31.2Z"/><path id="Path_2029" data-name="Path 2029" class="cls-1" d="M289.55,70.3a3.19,3.19,0,0,1,3.07-2.64,3.07,3.07,0,0,1,2.95,2.64Zm7.83,1.45c.17-3-1.55-5.68-4.78-5.68s-4.89,2.47-4.89,5.45a4.89,4.89,0,0,0,4.56,5.18h.37a5.06,5.06,0,0,0,4.65-2.83L295.83,73a3.44,3.44,0,0,1-3.06,2.08,3.26,3.26,0,0,1-3.3-3.23v-.14Zm-18.18-5.4h-1.71V76.43h1.71V71.65c0-1.8.15-4,2.51-4,2,0,2.12,1.46,2.12,3.09v5.68h1.72v-6c0-2.36-.65-4.37-3.43-4.37a3.36,3.36,0,0,0-2.87,1.5h-.05ZM270,67.66a3.73,3.73,0,1,1-3.57,3.88.76.76,0,0,1,0-.15,3.59,3.59,0,0,1,3.43-3.73H270m0,9a5.32,5.32,0,1,0-5.29-5.33v0A5.25,5.25,0,0,0,270,76.7H270m-14-8.76a3,3,0,0,0-2.68-1.87,2.87,2.87,0,0,0-3,2.74s0,.08,0,.12c0,3.17,4.55,2.4,4.55,4.65a1.54,1.54,0,0,1-1.52,1.54h-.11c-1.14,0-1.63-.67-2.06-1.61l-1.52.64a3.6,3.6,0,0,0,3.56,2.55,3.29,3.29,0,0,0,3.4-3.18v-.1c0-1.69-1.15-2.4-2.33-2.89s-2.34-.84-2.34-1.76a1.22,1.22,0,0,1,1.24-1.11,1.63,1.63,0,0,1,1.38,1Zm-8.37-1.59H245.9v1.44h0a4.33,4.33,0,0,0-3.45-1.71c-3,0-4.84,2.46-4.84,5.33s1.86,5.3,4.82,5.3A4.22,4.22,0,0,0,245.86,75h0v1.4h1.72Zm-5,1.31A3.37,3.37,0,0,1,246,71c0,.1,0,.2,0,.3,0,2-1.16,3.82-3.37,3.82s-3.3-1.86-3.3-3.84a3.41,3.41,0,0,1,3.2-3.61h.08m-13.82.28a3,3,0,0,0-2.68-1.86,2.87,2.87,0,0,0-3,2.74v.11c0,3.17,4.55,2.4,4.55,4.65a1.54,1.54,0,0,1-1.52,1.54H226c-1.14,0-1.63-.67-2.06-1.61l-1.52.64A3.6,3.6,0,0,0,226,76.7a3.29,3.29,0,0,0,3.4-3.19v-.08c0-1.7-1.16-2.4-2.33-2.9s-2.34-.83-2.34-1.76A1.22,1.22,0,0,1,226,67.66a1.6,1.6,0,0,1,1.37,1Zm-8.79,0h1.8V66.36H220V62.73h-1.72v3.63h-1.05v1.58h1.05v8.49H220Zm-7.64-1.58h-1.72V76.43h1.72v-5c0-1.31.08-3.73,2-3.73a1.7,1.7,0,0,1,1,.45l.81-1.56a2.9,2.9,0,0,0-1.54-.47,2.58,2.58,0,0,0-2.23,1.37h0Zm-4.55,0h-1.72v1.43h0a4.33,4.33,0,0,0-3.45-1.71c-3,0-4.85,2.46-4.85,5.33s1.87,5.3,4.83,5.3A4.24,4.24,0,0,0,206,75h0v1.39h1.72Zm-5,1.3a3.37,3.37,0,0,1,3.4,3.34c0,.1,0,.2,0,.3,0,2-1.16,3.82-3.37,3.82s-3.3-1.86-3.3-3.84a3.41,3.41,0,0,1,3.2-3.61h.08m-14.92-1.3h-1.72V82.09h1.72V75h0a4.24,4.24,0,0,0,3.45,1.7c3,0,4.85-2.42,4.85-5.3s-1.87-5.33-4.83-5.33a4.25,4.25,0,0,0-3.47,1.71h0Zm3.19,1.3a3.38,3.38,0,0,1,3.4,3.34c0,.1,0,.2,0,.31,0,2-1.16,3.81-3.37,3.81s-3.3-1.86-3.3-3.84a3.41,3.41,0,0,1,3.2-3.61h.08m-21.6,2.64a3.2,3.2,0,0,1,3.07-2.64,3.07,3.07,0,0,1,2.95,2.64Zm7.82,1.46c.18-3-1.54-5.68-4.77-5.68s-4.89,2.46-4.89,5.44a4.88,4.88,0,0,0,4.55,5.18h.38a5.11,5.11,0,0,0,4.65-2.83L175.73,73a3.44,3.44,0,0,1-3.06,2.08,3.27,3.27,0,0,1-3.31-3.22.61.61,0,0,1,0-.14Zm-13.8-5.4h-1.71V76.43h1.71v-5c0-1.3.09-3.73,2-3.73a1.7,1.7,0,0,1,1,.45l.82-1.56a3,3,0,0,0-1.54-.47,2.58,2.58,0,0,0-2.23,1.37h-.05Zm-4.55,0h-1.71v1.43h0a4.36,4.36,0,0,0-3.45-1.71c-3,0-4.85,2.46-4.85,5.34s1.87,5.29,4.82,5.29A4.27,4.27,0,0,0,157.17,75h0v1.39h1.71Zm-5,1.3A3.36,3.36,0,0,1,157.3,71c0,.1,0,.2,0,.31,0,2-1.15,3.81-3.36,3.81s-3.3-1.86-3.3-3.83a3.4,3.4,0,0,1,3.2-3.62h.07M139,66.36h-1.71V82.09H139V75h0a4.26,4.26,0,0,0,3.45,1.69c3,0,4.85-2.42,4.85-5.29s-1.87-5.34-4.82-5.34A4.28,4.28,0,0,0,139,67.79h0Zm3.19,1.3a3.38,3.38,0,0,1,3.4,3.34c0,.1,0,.21,0,.31,0,2-1.16,3.81-3.37,3.81s-3.3-1.86-3.3-3.83a3.42,3.42,0,0,1,3.2-3.62h.08m-7.88-5.17A4.64,4.64,0,0,0,130.11,60a4.25,4.25,0,0,0-4.51,3.95c0,.06,0,.11,0,.17,0,2.31,1.63,3.28,3.51,4.13l1,.43c1.5.69,3,1.33,3,3.22A3.25,3.25,0,0,1,129.75,75a3.34,3.34,0,0,1-3.24-3l-1.75.49a5.1,5.1,0,0,0,10.11-.81c0-2.57-1.78-3.62-3.88-4.54l-1.07-.48c-1.09-.49-2.53-1.13-2.53-2.53a2.56,2.56,0,0,1,2.62-2.5h.06a3,3,0,0,1,2.78,1.75Z"/></g><rect class="cls-4" width="505.58" height="82.09"/></g></g></svg>