<?xml version="1.0" encoding="utf-8"?>
<!-- Generator: Adobe Illustrator 27.3.1, SVG Export Plug-In . SVG Version: 6.00 Build 0)  -->
<svg version="1.1" id="Livello_1" xmlns="http://www.w3.org/2000/svg" xmlns:xlink="http://www.w3.org/1999/xlink" x="0px" y="0px"
	 viewBox="0 0 355.3 100" style="enable-background:new 0 0 355.3 100;" xml:space="preserve">
<style type="text/css">
	.st0{fill:#152140;}
</style>
<g>
	<path class="st0" d="M275.4,63.9c-1.4,0.5-3,1.4-3.6,2.9c-0.6,1.3-0.2,2.9,0.8,3.9c0.8,0.6,1.6,0.9,2.6,0.9c0,0,0.1,0,0.1,0
		c2.7,0.1,5.2-1,6.8-3.1c1.5-2,2-4.6,2.2-7c-1.3,0.4-2.6,0.8-4,1.1C278.7,63,277,63.3,275.4,63.9z"/>
	<polygon class="st0" points="179,42.5 179,42.6 179,42.6 	"/>
	<path class="st0" d="M355.2,60.9v-0.1c0-0.5,0-0.9,0-1.3v-0.1c0-0.1,0-0.1,0-0.2l0,0c0-0.4-0.1-0.9-0.2-1.4c0-0.1,0-0.2-0.1-0.4
		c-0.1-0.5-0.2-1-0.3-1.5c0-0.1,0-0.1-0.1-0.2l0,0c-0.1-0.4-0.3-0.8-0.4-1.2l-0.1-0.2c0-0.1,0-0.1-0.1-0.2c-0.2-0.5-0.4-0.9-0.6-1.3
		c0,0-0.1-0.2-0.1-0.2c-0.2-0.3-0.4-0.7-0.7-1.1l-0.1-0.2c0-0.1-0.1-0.1-0.1-0.2c0-0.1-0.1-0.1-0.1-0.2L352,51l0,0
		c-0.2-0.3-0.5-0.6-0.7-0.9l-0.1-0.1c-0.3-0.3-0.6-0.6-0.9-0.9c0,0,0,0-0.1-0.1l0,0c0,0-0.1-0.1-0.1-0.1l0,0
		c-0.2-0.2-0.4-0.3-0.5-0.4l-7.7-5.8c-3.5-2.8-8.2-4.1-14.4-4.1c-6.9,0-12.6,2.2-16.9,6.5c-1.4,1.4-2.7,3.1-3.7,4.9l-0.2,0.3
		l-0.2-0.2c-0.2-0.3-0.5-0.5-0.7-0.8c-0.1-0.1-0.2-0.2-0.2-0.2c-0.1-0.1-0.2-0.1-0.2-0.2l-0.4-0.3c-0.1-0.1-0.2-0.1-0.3-0.2l0,0
		l-7.8-5.9l-0.3-0.2c-0.1-0.1-0.2-0.2-0.3-0.2c-3.2-2.1-7.8-3.2-13.8-3.2c-6.5,0-11.5,1.1-15.1,3.3c-3,1.8-5,4.5-6.1,7.8l-0.1,0.4
		l-0.2-0.4c-0.1-0.2-0.3-0.4-0.4-0.6l-0.1-0.1l0-0.1l-0.1,0l0,0c-0.1-0.1-0.2-0.3-0.4-0.4l-0.1-0.1c0,0,0,0-0.1-0.1l0,0
		c0,0-0.1-0.1-0.1-0.1l0,0l0,0l0,0c-0.1-0.1-0.3-0.3-0.5-0.4l-0.2-0.2c0,0-0.1-0.1-0.1-0.1l0,0c-0.1-0.1-0.1-0.1-0.2-0.2l-7.9-6
		l-0.1-0.1l-0.1-0.1c-2.1-1.5-4.8-2.3-8.1-2.3c-2.6,0-5.2,0.6-7.5,1.9c-1.8,0.9-3.3,2.1-4.9,3.6l-0.2,0.2l-0.1-0.2
		c-0.4-0.5-2.3-2.8-3.3-3.5c-1.8-1.3-4.1-1.9-6.9-1.9c-2.6,0-5,0.5-7.1,1.6c-0.5,0.3-1.1,0.6-1.7,1l-0.1,0.1l-1.9-1.5h-14.7
		l-2.5,13.9l-0.3-0.5c0,0,0-0.1-0.1-0.1c-0.1-0.1-0.2-0.3-0.3-0.4c-0.2-0.4-0.5-0.8-0.7-1.1l-0.1,0l-0.3-0.3l0.1-0.1
		c0,0-0.1-0.1-0.1-0.1l0,0l-0.1-0.1c-0.4-0.5-0.7-0.8-1-1.2c-0.2-0.2-0.5-0.5-0.8-0.7c-0.3-0.3-0.6-0.5-0.9-0.7
		c-1.9-1.4-4-3-5.5-4.2c-1.9-1.5-2.3-1.8-2.4-1.8l-0.1-0.1c-3.4-2.5-8.1-3.8-13.9-3.8c-3.1,0-6,0.4-8.5,1.3l0,0h-10.1l0.9-5.3
		l-8.3-6.3h-15.6l-2.1,11.7l-5.3,0l-1.9,10.1l4.8,3.7l0,0.1c-0.7,3.9-1.4,8.2-2.2,12.6c-0.1,0.9-0.3,1.6-0.4,2.3l0,0.2
		c-0.1,0.8-0.2,1.4-0.2,1.9c-0.1,3.1,0.9,5.6,3,7.3l0,0l0,0l8.1,6.2c0.4,0.3,0.9,0.6,1.5,0.9c0.7,0.4,1.5,0.7,2.4,0.9
		c1.4,0.3,2.8,0.5,4.5,0.5h0c1.3,0,2.5-0.1,3.8-0.1l0.1,0c0.1,0,0.3,0,0.4,0l0.2,0c1.2-0.1,2.4-0.2,3.7-0.4l0.7-0.1l1.7-9.8l0.3,0.3
		c0.3,0.2,0.6,0.5,0.9,0.7l0.2,0.1l8,6.1c2.6,2,5.9,3.3,9.7,3.8c1.5,0.2,3.1,0.3,4.7,0.3c3.8,0,7.2-0.5,10.1-1.6
		c1.4-0.5,2.7-1.1,3.8-1.8c0.5-0.3,1-0.6,1.5-1l0,0c0.1,0,0.1-0.1,0.2-0.1l0,0c0,0,0.1-0.1,0.1-0.1c0.4-0.3,0.7-0.5,0.9-0.8
		c0.3-0.3,0.6-0.6,0.9-0.9c0,0,0.1-0.1,0.1-0.1c0.1-0.1,0.1-0.1,0.2-0.2l0.1-0.1l7,5.3h15.7l0-0.1c0,0,0.5-3.2,0.8-5l0.1-0.3
		l7.1,5.4h15.7c0.1-0.8,1-5.4,1-5.4l7,5.4h15.8l1.3-8l0.3,0.3c0,0,0.1,0.1,0.1,0.1l0.1,0.1l8.1,6.1c0.3,0.2,0.6,0.5,1,0.7
		c2.1,1.3,4.8,1.9,7.9,1.9c0.8,0,1.6-0.1,2.5-0.2c1.6-0.2,3.1-0.6,4.6-1.1c1.1-0.4,2.3-1,3.6-1.7l0.1-0.1l2.3,1.8h15.6l0.5-2.3
		l-0.3-0.5c0,0-0.1-0.1-0.1-0.1c0,0-0.1-0.1-0.1-0.1l0-0.1c0,0,0-0.1-0.1-0.1c0,0,0-0.1-0.1-0.1l0,0c0,0,0-0.1,0-0.1
		c-0.1-0.2-0.2-0.4-0.3-0.6l0-0.1c-0.1-0.2-0.1-0.4-0.1-0.7l0-0.2c0,0,0-0.1,0-0.2l0,0l0,0c0-0.2,0-0.4,0-0.7l0-0.2l0-0.3
		c0,0,0-0.1,0-0.1l0-0.2l0-0.1c0-0.1,0-0.2,0-0.2l0.1-0.5l0-0.2c0.1-0.3,0.1-0.6,0.2-0.9l0-0.1l0.8-4.6l0.3,0.4c0.7,1,1.5,2,2.4,2.8
		c0.3,0.3,0.7,0.6,1.1,0.9l0.1,0.1l8,6.1c3.1,2.4,7.1,3.7,11.9,4c0.7,0,1.4,0.1,2.1,0.1c3.8,0,7.2-0.7,10.3-2c1.5-0.7,3-1.5,4.2-2.4
		c0.3-0.2,0.5-0.4,0.8-0.6l0.1-0.1l0.2-0.2l-0.1-0.1l0.3-0.3l0.1,0.1l0.3-0.2l0.1-0.1l0,0l0.2-0.2c0.2-0.2,0.4-0.4,0.6-0.6
		c0.1-0.1,0.2-0.3,0.4-0.4c0.3-0.4,0.6-0.7,0.8-1l0.1-0.1c0,0,0.1-0.1,0.1-0.1c0.2-0.3,0.4-0.6,0.7-1.1c0,0,0-0.1,0.1-0.1l0,0
		c0-0.1,0.1-0.1,0.1-0.2l0-0.1c0-0.1,0.1-0.2,0.1-0.2c0.3-0.5,0.5-0.9,0.8-1.4c0,0,0-0.1,0-0.1c0.2-0.4,0.4-0.9,0.7-1.6l0.2-0.4
		c0.2-0.4,0.3-0.8,0.5-1.3c0-0.1,0-0.1,0.1-0.2c0-0.1,0.1-0.2,0.1-0.2c0.2-0.6,0.4-1.2,0.5-1.9l0.2-0.9l-8.3-6.3h-15.8l-0.2,0.8
		c-0.2,1.2-0.7,2.2-1.4,3l-0.4,0.5l0-0.6c0-0.1,0-0.1,0-0.2c0,0,0-0.1,0-0.2c0,0,0-0.1,0-0.1c0-0.1,0-0.1,0-0.2l0-0.1
		c0-0.3,0.1-0.6,0.1-0.8l0-0.2c0-0.1,0-0.2,0.1-0.3c0-0.2,0.1-0.4,0.1-0.7l0-0.1l0-0.2c0-0.1,0-0.1,0-0.2l0-0.1l0.1-0.3l0-0.1
		c0-0.2,0.1-0.4,0.2-0.5c0-0.1,0-0.1,0.1-0.2l0-0.1c0-0.1,0-0.1,0.1-0.2c0,0,0-0.1,0-0.1l0,0c0-0.1,0-0.1,0.1-0.1
		c0.1-0.4,0.3-0.7,0.4-1c0,0,0-0.1,0.1-0.1l0,0c0.1-0.3,0.3-0.6,0.5-0.8c0,0,0,0,0.1-0.1l0.1-0.1c0,0,0,0,0,0l0,0c0,0,0-0.1,0.1-0.1
		c0.1-0.2,0.2-0.3,0.4-0.5c0,0,0,0,0.1-0.1l0,0l0,0c0,0,0.1-0.1,0.1-0.1c0.1-0.1,0.3-0.3,0.4-0.4c0,0,0.1-0.1,0.1-0.1l0,0l0,0
		c0,0,0,0,0.1,0c0.2-0.2,0.4-0.3,0.6-0.5c0,0,0,0,0,0l0,0l0,0c0.2-0.1,0.3-0.2,0.5-0.2l0.1-0.1l6.5,5h15.5L355.2,60.9L355.2,60.9
		L355.2,60.9z M141.9,49.3c0,0-7.5,0-7.5,0c0,0-2.2,12.6-2.6,14.5c-0.1,0.7-0.2,1.4-0.2,2.2c0.1,2.3,2.5,2.7,4.4,2.7
		c0.4,0,0.9,0,1.3,0c-0.1,0.8-1.7,9.8-1.8,10.1c0,0-5.8,0.8-9.6,0.4c-5.5-0.6-9.3-4-8.2-10.1c0.2-0.9,3.4-19.7,3.4-19.7
		c0,0-5.4,0-5.3,0c0,0,1.4-7.6,1.4-7.6c0,0,5.3,0,5.3,0c0,0,2-11.6,2-11.6c0,0,13.2,0,13.2,0c0,0-1.4,7.9-2.1,11.6
		c0,0,12.5,0,12.5,0c-1.7,1.3-3.1,2.8-4.4,4.5c-0.6,0.8-1.2,1.7-1.7,2.6C142,49,141.9,49.3,141.9,49.3z M183.9,62.6
		c0,0-27.4,0-27.4,0c0,0,0,1.1,0,1.2c-0.1,2.1,0.3,4.5,2,6c1.6,1.5,4,1.8,6.1,1.5c3.4-0.5,4.2-2.4,4.5-3h13.2
		c-0.6,1.7-1.5,3.3-2.7,4.7c-2.7,3.3-6.6,5.3-10.6,6.2c-4.4,1-9.3,1-13.7-0.1c-2.2-0.5-4.3-1.4-6.2-2.7c-1.5-1.1-2.7-2.5-3.5-4.2
		c-1.5-3.1-1.6-6.8-0.8-10.1c0.8-3.4,2.5-6.5,5.1-8.8c3.1-2.7,7.2-4.1,11.3-3.8c-2.4,1.5-3.4,4.1-3.9,6.7h13.8c0,0,0-0.6,0-0.6
		c0-1.4-0.2-2.7-0.7-4c-2.1-5-8.2-6.5-13.1-5.8c-2.9,0.4-5.7,1.5-8.1,3.2c-1.4,1-4.3,3.2-6,9h-0.6c2.1-7.5,6.3-12.2,9.7-14.4
		c3.5-2.3,7.5-3.2,11.6-3.4c4.5-0.2,9.4,0.5,13.3,3C180.6,45.3,185.3,50.4,183.9,62.6z M253,54.1c-0.2,1.6-0.4,3.1-0.7,4.7
		c-0.8,4.7-2.9,17.4-3.3,19.9h-13.4c0.2-1,3.4-19.8,3.6-21.1c0.2-1.1,0.3-2.2,0.2-3.3c-0.2-1.1-0.6-1.9-1.5-2.5
		c-0.9-0.6-2.1-0.7-3.2-0.6c-1.3,0.1-2.6,0.7-3.5,1.7c-1.4,1.6-2,4.5-2.1,5.2c-1,5.1-3.3,18.2-3.7,20.4h-13.3
		c0.7-4.3,2.9-16.9,3.3-19.4c0.4-2.1,1.1-4.8-0.3-6.7c-1.2-1.6-3.8-1.6-5.5-1c-2.1,0.8-3.1,2.8-3.7,4.9c-0.7,3-3.8,20.5-4.1,22.2
		h-13.2c0.3-2,6.5-36.6,6.6-37h12.1c-0.4,2.2-0.8,4.7-1,5.8c0.8-0.9,1.6-1.8,2.4-2.6c1.7-1.6,3.7-3,5.9-3.7c2.2-0.7,4.6-0.9,6.8-0.6
		c1.9,0.3,3.8,1.1,5.1,2.6c1.2,1.3,1.7,2.9,2.1,4.6c2.4-2.9,5.2-5.5,8.9-6.7c3.8-1.3,8.6-1,11.9,1.5c1.7,1.3,2.9,3.1,3.4,5.2
		C253.3,49.9,253.2,52,253,54.1z M299,55c-0.3,1.9-0.7,3.8-1,5.6c-0.7,4-1.5,8-2.2,12.1c-0.3,1.8-0.3,3.7,0.8,5.2
		c0.2,0.3,0.2,0.3,0.2,0.7c0,0.1,0,0.1-0.1,0.1h-13.5c0,0-0.3-2.9-0.5-3.9c-1.4,1-2.8,2-4.3,2.8c-2,1-4,1.7-6.2,2.1
		c-3.9,0.6-8.4,0.2-11.5-2.5c0,0,0,0,0,0c-0.2-0.2-0.1-0.1-0.1-0.1c-2.1-2-3.1-4.7-2.9-7.6c0.1-2.3,0.7-4.7,2-6.6
		c1.8-2.8,4.9-4.2,8-5.2c2-0.6,4-1,6.1-1.3c2-0.3,4-0.4,6-0.6c1.6-0.2,3.4-0.5,4.8-1.4c0.6-0.4,1.2-0.9,1.5-1.6
		c0.3-0.9,0.1-2-0.5-2.8c-1.4-1.7-4.2-1.8-6.2-1.4c-1,0.2-2.1,0.6-2.8,1.4c-0.4,0.4-0.6,0.9-0.8,1.4c-0.1,0.4-0.3,1-0.3,1h-13.1
		c0.5-2.8,1.8-5.4,3.9-7.3c2-1.8,4.4-3,7-3.6c2.1-0.5,4.2-0.8,6.3-1c2.4-0.1,4.7-0.1,7.1,0.1c3.6,0.4,7.4,1.3,10.1,3.9
		c1.3,1.3,2.2,3,2.5,4.8C299.5,51,299.3,53,299,55z M332.7,54.9c-0.3,0-0.1-0.3-0.2-0.5c-0.2-1.9-1.1-3.6-2.9-4.3
		c-1.9-0.8-4.5-0.6-6.2,0.7c-1.7,1.2-2.7,3.1-3.4,5c-0.8,2.1-1,4.5-1.1,6.8c0,1.2,0,2.5,0.3,3.7c0.4,1.8,1.5,3.3,3.2,3.9
		c1.9,0.7,4.2,0.4,5.8-0.8c0.8-0.6,1.6-1.4,2.1-2.3c0.6-1,0.9-2.3,0.9-2.3h13.3c-1.2,5-4,9.5-8.5,12.2c-3.6,2.2-7.9,3-12.1,3
		c-2.4,0-4.7-0.3-7-0.9c-2.1-0.6-4.3-1.5-6-3c-1.8-1.5-3.2-3.2-4.3-5.3c-0.9-2-1.4-4.1-1.6-6.2c-0.3-4.5,0.6-9.2,2.6-13.3
		c2.1-4.1,5.5-7.3,9.7-9.2c4.3-1.9,9.2-2.3,13.8-1.7c3.7,0.4,7.3,1.7,10.1,4.2c2.9,2.7,4.3,6.4,4.3,10.3
		C344.9,54.9,332.9,54.9,332.7,54.9z"/>
</g>
<path class="st0" d="M100.4,44.3L100.4,44.3l0-0.2l0-0.1l0,0l0,0l-0.1-0.1l0,0l-7.5-5.6l0,0l-0.1,0l0,0l0,0l-0.2-0.7l4.2-4.7
	l0.1-0.1l0-0.3l0-0.2l0-0.1L93,26l0,0l0,0l0,0l0,0l0,0l0,0l-7.5-5.6l-0.1,0l-0.1-0.1l-0.1,0l0,0l-0.1,0h-0.1l-0.1,0l-1,0.2l1.1-3.2
	l0-0.1v-0.2l0-0.1l0-0.1l0-0.1l-0.1-0.1l-0.1-0.1l-7.5-5.6l-5.6-4.1l-0.1,0l-0.2-0.1l-0.1,0h-0.1l-0.1,0l-0.2,0.1l-0.1,0l-2.7,2
	L68,7.7l0-0.1l0-0.1l0-0.1l0,0l0,0l-0.1-0.1l0,0l-7.5-5.6l0,0l-0.1,0l0,0l0,0l0,0l-0.1,0l0,0L53.2,0l-0.1,0l-0.2,0l-0.1,0l-0.1,0
	l-0.1,0l-0.1,0.1l-0.1,0.1l-3.1,5.5l-0.9,0l0,0L41,0.1l-0.1,0L40.9,0l-0.1,0l0,0l-0.1,0l-0.1,0l-0.1,0l-6.8,1.4l-0.1,0l-0.1,0.1
	l-0.1,0.1l0,0l0,0.1l-0.1,0.2l0,0.1l-0.6,6.2l-4.8,2.2l-5-3.7l-0.2-0.1l-0.1,0l-0.1-0.1l-0.1,0l-0.1,0l-0.2,0.1l-0.1,0l-5.6,4.1
	l-0.1,0.1L16.4,11l0,0.1l0,0.1l0,0.1l0,0.2l0,0.1l1.9,5.9l-3.5,3.9l-6-1.3l-0.1,0l-0.2,0l-0.1,0l-0.1,0l-0.1,0l-0.1,0.1l-0.1,0.1
	l-3.5,6.1l0,0.1l0,0.2l0,0.1l0,0.1l0,0.1L4.7,27l0,0.1l4.2,4.6l-1.7,5.1L1.2,38l-0.1,0l-0.1,0.1l-0.1,0.1l0,0l0,0.1l-0.1,0.2l0,0.1
	l-0.7,7l0,0.1l0,0.1l0,0.1l0,0.1l0,0.1L0.2,46l0.1,0l5.9,4.4l0.3,3.4l-5,3.7l-0.1,0.1l-0.1,0.1l0,0.1l0,0.1l0,0.1l0,0.2l0,0.1
	l2.1,6.7l0,0l0,0.1l0,0l0,0l0,0l0.1,0.1l0,0l7.5,5.6l0,0l0.1,0l0,0l0,0l0,0l0.1,0l0,0l0.6,0l-2.5,4.3l0,0.1l0,0.2l0,0.1l0,0.1l0,0.1
	L9.6,76l0,0.1l4.6,5.2l0.1,0.1l0,0l0,0l7.5,5.6l0.1,0l0.1,0.1l0.1,0l0.1,0h0.1l0.1,0l0.1,0l1.8-0.8l-0.2,2v0l0,0.1l0,0l0,0l0,0.1
	l0.1,0.1l0,0.1l0,0l0,0l0,0l0,0l7.5,5.6l0,0l0.1,0l0,0l6.3,2.8l0.2,0l0.1,0l0.3-0.1l0.1-0.1l3.4-3.8l0.2,0.6l0,0l0,0.1l0,0l0,0l0,0
	l0.1,0.1l0,0l7.5,5.6l0,0l0.1,0l0,0l0,0l0,0l0.1,0l0,0l6.9,0l0.1,0l0.2-0.1l0.1,0l0.1,0l0.1-0.1l0.1-0.1l0-0.1l1.9-6l3.4-0.7
	l5.9,4.4l0.1,0l0.1,0.1l0.1,0l0.1,0l0.1,0l0.1,0l0.1,0l6.3-2.9l0.1,0l0.1-0.1l0.1-0.1l0-0.1l0-0.1l0-0.2l0-0.1L76,87.7l4.3-3.1
	l5.6,2.6l0.2,0l0,0l0,0l0.1,0l0.1,0l0.2-0.1l0.1-0.1l4.6-5.2l0-0.1l0.1-0.2l0-0.1l0-0.1l0-0.1l0-0.2l0-0.1l-3.1-5.4l2.7-4.6l6.2,0
	l0.1,0l0.2-0.1l0.1,0l0.1,0l0.1-0.1l0.1-0.1l0-0.1l2.1-6.7l0-0.1l0-0.2l0-0.1l0-0.1l0-0.1l-0.1-0.1l-0.1-0.1l-5-3.7l0.6-5.2l5.7-2.5
	l0.1,0l0.1-0.1l0.1-0.1l0-0.1l0-0.1l0-0.2l0-0.1L100.4,44.3z M41.5,79.7l-3.3-2.4l-0.1,0l0,0L38,77.2l-0.4-0.1
	c-1.6-0.4-3.2-1.1-4.8-1.9l0,0c-0.1-0.1-0.1-0.1-0.2-0.2c-0.3-0.3-0.7-0.7-1-1.1c-0.1-0.1-0.1-0.1-0.2-0.2c0-0.1-0.1-0.1-0.1-0.2
	l-0.2-0.2c-0.1-0.1-0.3-0.3-0.4-0.4c-0.1-0.1-0.1-0.2-0.2-0.3l0-0.1c-0.1-0.1-0.1-0.2-0.2-0.3c-0.3-0.4-0.5-0.7-0.8-1.1
	c0,0,0-0.1-0.1-0.1c0,0,0-0.1-0.1-0.1c-0.3-0.4-0.6-0.9-0.8-1.2c-0.1-0.1-0.1-0.2-0.2-0.3c-0.3-0.4-0.5-0.8-0.7-1.1l-0.1-0.2
	c-0.2-0.4-0.5-0.8-0.7-1.3c-0.1-0.1-0.1-0.2-0.2-0.3c-0.2-0.5-0.4-0.8-0.6-1.2c0,0,0-0.1-0.1-0.1c0,0,0,0,0-0.1
	c-0.2-0.4-0.4-0.9-0.5-1.3c-0.1-0.1-0.1-0.3-0.2-0.4c-0.2-0.5-0.3-0.8-0.4-1.2l0-0.1c0,0,0-0.1,0-0.1c-0.1-0.4-0.3-0.9-0.4-1.4
	c0-0.1,0-0.1,0-0.2c0-0.1,0-0.1-0.1-0.2c-0.1-0.4-0.2-0.8-0.3-1.2c0,0,0-0.1,0-0.1c0,0,0,0,0-0.1c-0.1-0.4-0.1-0.8-0.2-1.4
	c0-0.1,0-0.2,0-0.3l0-0.1c0-0.1,0-0.1,0-0.2c0-0.1,0-0.1,0-0.2c0-0.3-0.1-0.6-0.1-1l0-0.1v0v0c0-0.5-0.1-0.9-0.1-1.5
	c0-0.1,0-0.2,0-0.3l0-0.1c0-0.4,0-0.8,0-1.1c0-0.1,0-0.2,0-0.3l0-0.2c0-0.3,0-0.6,0-0.9l0,0c0-0.1,0-0.2,0-0.4l0-0.1
	c0-0.1,0-0.1,0-0.2c0,0,0-0.1,0-0.1c0-0.1,0-0.1,0-0.2c0,0,0-0.1,0-0.1c0-0.5,0.1-1,0.1-1.3l0-0.3c0-0.1,0-0.2,0-0.3
	c0-0.3,0.1-0.6,0.2-0.9l3.7,2.8c0.6,0.5,1.2,0.9,1.8,1.4l0.7,0.5c1.1,0.8,2.4,1.4,3.7,1.7c0.4,0.1,0.8,0.2,1.2,0.2c0,0,0.1,0,0.1,0
	c0.2,0,0.5,0,0.8,0c0.1,0,0.3,0,0.5,0c0.1,0,0.3,0,0.4,0l0.3,0l0.1-0.1l0,0h0l0,0l0.1-0.1l0-0.1l0,0l0.1-0.1l0,0l0,0l0-0.1l0-7.5
	l0-0.1l0-0.1l0-0.1l0,0l0-0.1l-0.1-0.1l0,0L36,44.1c0,0,0,0,0-0.1c0,0,0,0,0-0.1c0,0,0,0,0-0.1c0,0,0,0,0,0l0,0
	c0.1-0.1,0.2-0.1,0.3-0.1c0.1,0,0.2,0,0.2,0c0,0,0,0,0.1,0h4.7V79.7z M86.1,47.6L86,47.8l-0.6,6.1l-0.1,0.8l0.1,0.3l5,3.7l-1.7,5.2
	l-6.2,0l-0.2,0.1l-0.7,1.2l-2.8,4.8l0,0.3l3.1,5.4l-2,2.2l-1.7,1.9l-5.7-2.6l-0.3,0l-5.5,4.1l-0.1,0.3l0-0.1l0.4,3.2l0.3,3l-4.9,2.2
	l-4.1-4.7l-0.3-0.1l-6.7,1.4l-0.2,0.2l-1.9,6l-2.7,0l-2.7,0l-0.8-3.3V36.7l-0.3-0.3l-13.6,0c-0.7,0-1.2,0.2-1.6,0.6l-0.1,0.1
	c0,0,0,0,0,0l0,0c0,0,0,0,0,0l0,0c-0.1,0.1-0.2,0.2-0.2,0.3c0,0,0,0,0,0l0,0c0,0,0,0.1-0.1,0.1c-0.2,0.4-0.4,0.7-0.4,1.1
	c0,0.6,0.1,1.2,0.5,1.6c0,0,0,0,0,0l0,0l0,0c0.1,0.1,0.2,0.2,0.3,0.3l0,0c0,0,0,0,0,0c0,0,0.1,0,0.1,0.1c0.1,0.1,0.2,0.1,0.3,0.2
	l0,0l0.1,0c0.1,0,0.2,0.1,0.3,0.1l0,5.6c-0.1,0-0.1,0-0.2,0c-0.3,0-0.5,0-0.7,0c-0.3,0-0.6-0.1-1-0.2l-0.3-0.1
	c-0.3-0.1-0.5-0.1-0.8-0.2c0,0-0.1,0-0.1,0c0,0-0.1,0-0.1,0c-0.3-0.1-0.6-0.3-0.9-0.4c0,0-0.1,0-0.1-0.1c0,0-0.1,0-0.1,0
	c-0.2-0.1-0.5-0.3-0.7-0.4c-0.6-0.4-1.1-0.9-1.6-1.5c-1.4-1.7-2.1-3.9-1.9-6.1c0.2-2.2,1.2-4.2,2.9-5.7c1.5-1.3,3.3-1.9,5.3-1.9
	c0.2,0,42.2,0,42.2,0v6.5H49.8l-0.3,0.3v43.1l0.2,0.3l0.4,0l0.1,0c0,0,0,0,0.1,0c0.4,0,0.8-0.1,1.1-0.1
	c17.5-2.5,29.8-18.3,28.1-36.1c-1.7-17-15.6-29.9-32.5-29.9l-0.2,0c-0.5,0-0.9,0-1.5,0c-0.5,0-1,0.1-1.5,0.1c0,0-0.1,0-0.1,0h0l0,0
	h0c-0.5,0-0.9,0.1-1.5,0.2c-0.1,0-0.2,0-0.3,0.1l-0.2,0c-0.3,0.1-0.7,0.1-1,0.2c-0.2,0-0.3,0.1-0.5,0.1l0,0c-0.3,0.1-0.7,0.2-1,0.2
	c-0.1,0-0.2,0-0.3,0.1l-0.2,0c-0.4,0.1-0.7,0.2-1.2,0.3c0,0-0.1,0-0.1,0c-0.1,0-0.1,0-0.2,0c-0.5,0.1-0.9,0.3-1.4,0.5
	c-0.1,0-0.2,0.1-0.3,0.1l-0.1,0c-0.3,0.1-0.7,0.3-1,0.4c-0.1,0-0.2,0.1-0.3,0.1c0,0,0,0-0.1,0c0,0,0,0-0.1,0l-0.2,0.1
	c-0.1,0-0.1,0.1-0.2,0.1c-12.8,5.9-20.5,19.3-19.2,33.5c0.2,2.9,0.8,5.8,2,8.7v0c0.1,0.2,0.2,0.4,0.3,0.6l0.1,0.2
	c0,0.1,0.1,0.2,0.1,0.3l0.1,0.1c0.1,0.3,0.2,0.5,0.4,0.8l0.1,0.1c0,0.1,0.1,0.2,0.1,0.3c0.1,0.2,0.3,0.5,0.4,0.8l0,0
	c0,0.1,0.1,0.2,0.1,0.2c0,0,0.1,0.2,0.1,0.2c0.2,0.4,0.5,0.8,0.8,1.4c0.1,0.2,0.2,0.4,0.3,0.6c1,1.6,2.1,3.1,3.4,4.5
	c0.1,0.1,0.1,0.1,0.2,0.2c0.3,0.4,0.7,0.8,1,1.1c0,0,0,0,0,0c0.6,0.6,1.3,1.3,1.9,1.9l0.1,0.1c0,0,0.1,0.1,0.1,0.1
	c0.6,0.5,1.2,1,1.8,1.5l0.4,0.3c0.2,0.1,0.3,0.2,0.5,0.4c0.2,0.1,0.3,0.2,0.5,0.3c0.2,0.1,0.3,0.2,0.5,0.3l0.1,0.1l0.4,0.2
	c0.2,0.1,0.4,0.2,0.5,0.3c0.2,0.1,0.3,0.2,0.5,0.3c0.2,0.1,0.4,0.2,0.6,0.3l0.1,0.1c0.1,0.1,0.3,0.1,0.4,0.2
	c0.1,0.1,0.3,0.1,0.4,0.2l0.4,0.2c0.1,0,0.2,0.1,0.3,0.1c0.3,0.1,0.5,0.2,0.7,0.3c0.1,0,0.1,0,0.2,0.1c0.1,0,0.1,0.1,0.2,0.1
	c0.2,0.1,0.4,0.2,0.7,0.2l0,0c0.1,0,0.1,0,0.2,0.1c0.1,0,0.2,0.1,0.2,0.1c0.3,0.1,0.5,0.2,0.8,0.3l0,0l-1.9,6.9l-3.9,4.4l-4.9-2.2
	l0.7-6.3l-0.1-0.3l-4.9-3.6L20.9,77l-0.3,0L15,79.6l-3.6-4.1l3.2-5.4v-0.3l-3.4-6l-0.2-0.1l-6.2,0.1l-1.6-5.2l0.6-0.4l4.5-3.2
	l0.1-0.2l-0.3-3.4l0-0.4l-0.2-1.9l-0.1-1.2l-0.2-0.2l-5.7-2.5l0.6-5.4l6.1-1.3l0.2-0.2l0.6-1.7l1.6-4.9l-0.1-0.3l-4.2-4.6l2.7-4.8
	l2.2,0.5l0.7,0.2l3.1,0.7l0.3-0.1l4.6-5.1l0.1-0.3l-2-6l2.2-1.6l2.2-1.6l5,3.7l0.3,0l6.3-2.8l0.2-0.2l0.6-5.8l0-0.5l5.3-1.1l1.4,2.6
	l1.6,2.9l0.2,0.1l6.8,0l0.2-0.1l3.1-5.5L58.9,3l0.6,6.3l0.2,0.2l6.2,2.9l0.3,0l5-3.7l4.4,3.2l-1.9,5.5l-0.2,0.5l0.1,0.3l4.6,5.2
	l0.3,0.1l6-1.3l2.7,4.7L83,31.3l-0.1,0.3l2.1,6.6l0.2,0.2l6.1,1.3l0.5,5.5L86.1,47.6z M72,28.4L72,28.4l-0.1-0.1l0,0l0,0l-0.1,0l0,0
	l-36.8,0c0,0,0.1-0.1,0.1-0.1l0.2-0.1c0.2-0.2,0.4-0.3,0.6-0.5c0.1-0.1,0.3-0.2,0.4-0.3c0.2-0.2,0.5-0.3,0.8-0.5
	c0.1-0.1,0.3-0.2,0.4-0.3c0.3-0.2,0.6-0.4,0.9-0.6l0.1-0.1c0,0,0.1-0.1,0.1-0.1c0.4-0.2,0.8-0.5,1.2-0.7l0.1,0
	c0.1,0,0.2-0.1,0.3-0.1c0.3-0.1,0.6-0.3,0.9-0.5c0.1-0.1,0.3-0.1,0.4-0.2c0.3-0.2,0.6-0.3,0.9-0.4c0.1-0.1,0.2-0.1,0.4-0.2l0.1,0
	c0.3-0.1,0.6-0.2,1-0.4c0.1,0,0.2-0.1,0.2-0.1l0.1,0c0.5-0.2,0.9-0.3,1.3-0.5l0.1,0c0.1,0,0.1,0,0.1,0c0.3-0.1,0.7-0.2,1.2-0.3
	c0.1,0,0.2,0,0.3-0.1l0.2,0c0.3-0.1,0.7-0.2,1-0.2c0.2,0,0.3-0.1,0.5-0.1c0.3-0.1,0.6-0.1,1-0.2l0.2,0c0.1,0,0.1,0,0.2,0
	c0.6-0.1,1-0.1,1.5-0.2c0.2,0,0.4,0,0.5,0c0,0,0.2,0,0.3,0c0.9-0.1,1.6-0.1,2.2-0.1h0c2.2,0,4.4,0.3,6.6,0.7
	c0.6,0.1,1.2,0.3,1.8,0.5c0.1,0,0.1,0,0.2,0.1c2,0.6,3.9,1.4,5.8,2.4C70.1,25.9,71.1,27.2,72,28.4L72,28.4z M77.9,43.7
	c0,0.1,0,0.1,0,0.2c1.3,13.8-6.6,27.1-19.3,32.3V43.7H77.9z"/>
<g>
	<path class="st0" d="M94,13.6c-3.9,0-7.1-3-7.1-6.8C86.9,3,90.1,0,94,0c3.9,0,7.1,3,7.1,6.8C101.1,10.6,97.9,13.6,94,13.6z M94,0.8
		c-3.4,0-6.2,2.7-6.2,6c0,3.3,2.8,6,6.2,6c3.4,0,6.2-2.7,6.2-6C100.2,3.5,97.4,0.8,94,0.8z M96.7,5.2c0,1.7-1.7,2-2.2,2v0
		c1,0.3,1.3,0.6,2.5,3.2h-1.1L95.7,10c-1.2-2.3-1.6-2.7-3.2-2.7h-0.4v3.1h-0.9V3.3h3.1C96.7,3.3,96.7,5,96.7,5.2z M92.1,6.6h1.2
		c1.2,0,2.4-0.1,2.4-1.3c0-1.2-1-1.2-2.2-1.2h-1.4V6.6z"/>
</g>
</svg>
